<svg xmlns="http://www.w3.org/2000/svg" width="420" height="466" viewBox="0 0 420 466">
  <defs>
    <linearGradient id="a" x1="51.852%" x2="51.852%" y1="10.23%" y2="100%">
      <stop stop-color="#86C1E4" offset="0%"/>
      <stop stop-color="#86C1E4" stop-opacity="0" offset="100%"/>
    </linearGradient>
  </defs>
  <g fill="none" fill-rule="evenodd">
    <rect width="420" height="444.782" y="21.218" fill="url(#a)"/>
    <path fill="#FFFFFF" d="M180.978955,24.454829 C180.954361,24.5682644 180.930134,24.6724898 180.90065,24.7609418 L180.90065,24.2649302 L180.735313,24.2649302 L180.978955,24.454829 Z M180.735313,24.2649302 L180.978955,24.454829 C181.092277,23.9321532 181.213408,23.2139389 181.892674,22.9422324 L181.892674,23.1075697 C181.892674,26.7449884 179.081941,30.382407 179.081941,34.1851629 L179.247278,34.1851629 C179.247278,35.011849 178.916604,35.6731979 178.916604,36.4998839 L178.916604,36.6652211 L179.577953,36.4998839 L179.577953,37.4919072 C179.412616,37.9879188 179.247278,39.3106165 179.247278,39.3106165 L178.751267,39.3106165 C178.751267,40.1373026 179.081941,40.1373026 179.081941,40.7986515 C179.081941,45.097419 177.263232,49.0655121 177.593906,53.1989425 C177.263232,53.1989425 176.76722,59.4817566 176.76722,59.9777682 C176.76722,60.639117 176.76722,60.8044543 177.097895,61.4658031 C176.932557,62.7885008 176.932557,69.2366521 177.097895,70.5593498 C177.097895,71.7167103 177.428569,77.0075011 177.593906,78.1648616 L178.916604,85.7703734 C179.081941,87.2584084 179.412616,89.4077921 180.569976,90.5651526 C180.569976,90.3998154 180.90065,90.2344782 180.90065,90.2344782 L180.90065,89.9038038 C179.577953,84.1170013 178.255255,78.1648616 178.255255,72.0473848 C178.255255,71.8820475 178.255255,71.7167103 178.58593,71.5513731 C179.247278,77.5035128 180.073964,83.124978 181.396662,88.9117805 C181.396662,89.0771177 181.727337,89.4077921 181.892674,89.4077921 C181.892674,89.4077921 182.388685,89.0771177 182.388685,88.9117805 L182.71936,88.9117805 L182.71936,89.4077921 L182.388685,90.2344782 L182.388685,90.5651526 C182.554023,90.3998154 183.050034,90.2344782 183.050034,90.2344782 L183.380709,90.2344782 C183.380709,90.2344782 183.711383,91.0611643 183.711383,91.2265015 L183.87672,91.2265015 C184.703406,91.2265015 185.860767,89.7384666 186.191441,89.0771177 L186.191441,88.9117805 L186.356779,88.9117805 C187.679476,88.9117805 187.679476,90.069141 190.655546,90.069141 C190.655546,90.3998154 190.490209,90.7304898 190.490209,91.2265015 L190.98622,91.2265015 L191.812907,90.895827 C191.812907,90.895827 192.143581,91.2265015 192.308918,91.2265015 C192.308918,91.2265015 192.639593,91.3918387 192.80493,91.3918387 L192.970267,91.5571759 C193.466279,91.5571759 194.458302,90.3998154 195.284988,90.3998154 C195.284988,91.0611643 195.284988,92.0531875 195.615662,92.383862 L195.615662,96.6826295 L196.93836,96.6826295 C196.93836,98.6666761 196.111674,102.138758 195.119651,103.79213 C195.119651,103.79213 194.623639,104.122804 194.458302,104.122804 C191.647569,105.280165 189.167511,106.7682 186.522116,107.92556 C184.207395,108.917583 181.065988,108.421572 178.58593,109.413595 C177.759243,109.578932 173.79115,109.744269 172.964464,109.744269 L172.468453,109.744269 C171.311092,109.578932 168.335022,109.248258 168.169685,109.248258 C168.169685,109.248258 165.689627,107.429548 164.697604,106.602862 C164.697604,106.602862 164.532266,106.437525 164.366929,106.437525 C163.540243,105.280165 162.217545,104.618816 161.556197,103.461455 C153.785348,93.210548 152.958661,77.9995244 152.958661,65.9299079 L152.958661,60.639117 C153.289336,59.4817566 153.62001,58.6550705 153.62001,57.6630472 L153.289336,57.6630472 C153.289336,55.182989 154.281359,52.2069192 154.281359,49.8921982 L154.281359,49.726861 L153.950685,49.3961866 L153.950685,49.2308493 C153.950685,47.7428144 154.777371,46.2547795 154.777371,45.097419 L154.446696,45.097419 C154.446696,44.9320818 154.446696,44.7667446 154.612034,44.6014074 C155.604057,43.1133725 155.273382,42.1213492 155.43872,40.3026398 C155.43872,40.3026398 155.769394,39.9719654 155.934731,39.9719654 C155.934731,39.8066282 156.100069,39.1452793 156.100069,38.9799421 L156.100069,38.6492677 C156.59608,37.9879188 156.761417,37.1612328 156.430743,36.1692095 L156.761417,36.4998839 C158.249452,34.3505002 157.918778,31.2090931 158.745464,28.8943721 C160.564173,23.9342557 163.870918,19.470151 165.854964,14.6753718 L170.980418,8.72323212 C173.79115,5.41648786 177.593906,1.61373195 182.223348,1.61373195 C182.388685,1.61373195 183.050034,1.77906917 183.050034,1.77906917 C183.215371,1.77906917 184.868744,2.10974359 184.868744,2.10974359 L185.530092,1.77906917 C186.191441,1.77906917 186.85279,2.44041802 187.514139,2.60575523 C189.994197,3.4324413 192.639593,3.26710408 195.450325,3.92845294 C200.410442,5.08581343 203.551849,10.7072787 203.551849,15.6673951 C203.551849,21.1235231 202.559825,26.4143139 199.418418,31.0437559 L199.253081,31.3744303 C197.765046,32.3664536 197.599709,33.8544885 196.442349,34.8465118 C194.623639,36.3345467 192.639593,35.8385351 190.98622,36.4998839 C190.655546,36.6652211 189.82886,37.4919072 189.663523,37.4919072 L187.514139,37.4919072 C187.514139,37.32657 187.183465,36.8305584 187.183465,36.6652211 L186.85279,36.6652211 C186.85279,36.8305584 186.356779,36.9958956 186.191441,37.1612328 L186.191441,35.5078606 L185.530092,35.5078606 C185.530092,35.1771862 185.034081,33.8544885 184.868744,33.6891513 L184.703406,33.3584769 C184.703406,33.3584769 184.538069,33.0278025 184.538069,32.8624652 C184.538069,31.2090931 188.6715,26.5796511 188.6715,23.6035813 L188.6715,23.2729069 L188.010151,23.7689185 L188.010151,23.4382441 C189.167511,20.4621743 189.994197,17.4861044 189.994197,14.1793602 C189.994197,13.0219997 189.994197,12.525988 189.663523,11.2032903 C189.332848,10.8726159 189.167511,10.8726159 188.6715,10.8726159 L188.506162,10.8726159 C184.372732,14.3446974 179.577953,23.2729069 178.089918,28.0676861 C178.089918,28.0676861 177.924581,28.0676861 177.924581,28.2330233 L178.089918,28.5636977 C178.420592,28.2330233 178.420592,27.7370116 178.58593,27.241 C179.081941,26.2489767 180.404639,24.2649302 180.569976,24.2649302 L180.735313,24.2649302 Z M157.092092,33.8544885 C156.761417,33.8544885 156.761417,34.6811746 157.092092,34.6811746 C157.422766,34.6811746 157.422766,33.8544885 157.092092,33.8544885 Z M184.207395,0.456371462 C183.87672,0.456371462 183.87672,1.11772031 184.207395,1.11772031 C184.703406,1.11772031 184.703406,0.456371462 184.207395,0.456371462 Z M165.854964,70.5593498 L165.854964,71.0553615 L166.350976,71.0553615 L166.350976,70.5593498 L165.854964,70.5593498 Z M178.255255,65.4338962 C178.089918,65.4338962 178.089918,66.2605823 178.255255,66.2605823 C178.58593,66.2605823 178.58593,65.4338962 178.255255,65.4338962 Z M179.908627,35.5078606 C179.577953,35.5078606 179.577953,36.1692095 179.908627,36.1692095 C180.073964,36.1692095 180.073964,35.5078606 179.908627,35.5078606 Z M183.87672,88.9117805 C183.711383,88.9117805 183.711383,89.5731293 183.87672,89.5731293 C184.207395,89.5731293 184.207395,88.9117805 183.87672,88.9117805 Z M167.177662,106.437525 C167.177662,106.602862 167.342999,106.7682 167.673673,106.933537 L167.673673,106.437525 L167.177662,106.437525 Z M178.255255,67.2526056 L178.255255,69.2366521 C178.420592,69.0713149 178.420592,67.4179428 178.255255,67.2526056 Z M187.679476,24.2649302 C187.514139,24.2649302 187.514139,24.7609418 187.679476,24.7609418 C188.010151,24.7609418 188.010151,24.2649302 187.679476,24.2649302 Z M157.753441,32.0357792 C157.588103,31.870442 157.257429,32.2011164 157.422766,32.3664536 C157.588103,32.5317908 157.918778,32.2011164 157.753441,32.0357792 Z M178.255255,62.4578264 C178.089918,62.4578264 178.089918,62.953838 178.255255,62.953838 C178.58593,62.953838 178.58593,62.4578264 178.255255,62.4578264 Z M178.255255,70.0633382 C178.089918,70.0633382 178.089918,70.5593498 178.255255,70.5593498 C178.58593,70.5593498 178.58593,70.0633382 178.255255,70.0633382 Z M165.854964,38.4839305 C165.689627,38.3185933 165.689627,39.1452793 165.854964,38.9799421 C166.185639,38.8146049 166.185639,38.4839305 165.854964,38.4839305 Z M179.908627,26.0836395 C179.74329,25.9183023 179.74329,26.7449884 179.908627,26.7449884 C180.073964,26.5796511 180.073964,26.0836395 179.908627,26.0836395 Z M187.514139,25.0916162 L187.514139,25.4222906 L187.183465,25.7529651 L187.514139,25.0916162 Z M184.868744,1.11772031 C184.868744,0.952383101 184.538069,0.952383101 184.703406,1.11772031 C184.703406,1.28305753 184.868744,1.28305753 184.868744,1.11772031 Z M178.916604,38.4839305 C178.751267,38.3185933 178.751267,38.6492677 178.916604,38.6492677 C179.081941,38.6492677 179.081941,38.4839305 178.916604,38.4839305 Z M229.422758,24.454829 C229.398164,24.5682644 229.373938,24.6724898 229.344454,24.7609418 L229.344454,24.2649302 L229.179117,24.2649302 L229.422758,24.454829 Z M229.179117,24.2649302 L229.422758,24.454829 C229.53608,23.9321532 229.657211,23.2139389 230.336477,22.9422324 L230.336477,23.1075697 C230.336477,26.7449884 227.525745,30.382407 227.525745,34.1851629 L227.691082,34.1851629 C227.691082,35.011849 227.360407,35.6731979 227.360407,36.4998839 L227.360407,36.6652211 L228.021756,36.4998839 L228.021756,37.4919072 C227.856419,37.9879188 227.691082,39.3106165 227.691082,39.3106165 L227.19507,39.3106165 C227.19507,40.1373026 227.525745,40.1373026 227.525745,40.7986515 C227.525745,45.097419 225.707035,49.0655121 226.03771,53.1989425 C225.707035,53.1989425 225.211024,59.4817566 225.211024,59.9777682 C225.211024,60.639117 225.211024,60.8044543 225.541698,61.4658031 C225.376361,62.7885008 225.376361,69.2366521 225.541698,70.5593498 C225.541698,71.7167103 225.872372,77.0075011 226.03771,78.1648616 L226.864396,83.124978 C227.525745,85.6050362 228.517768,88.2504316 229.344454,90.2344782 L229.344454,89.9038038 C228.021756,84.1170013 226.699059,78.1648616 226.699059,72.0473848 C226.699059,71.8820475 226.699059,71.7167103 227.029733,71.5513731 C227.691082,77.5035128 228.517768,83.124978 229.840466,88.9117805 C229.840466,89.0771177 230.17114,89.4077921 230.336477,89.4077921 C230.336477,89.4077921 230.832489,89.0771177 230.832489,88.9117805 L231.163163,88.9117805 L231.163163,89.4077921 L230.832489,90.2344782 L230.832489,90.5651526 C230.997826,90.3998154 231.493838,90.2344782 231.493838,90.2344782 L231.824512,90.2344782 C231.824512,90.2344782 232.155187,91.0611643 232.155187,91.2265015 L232.320524,91.2265015 C233.14721,91.2265015 234.30457,89.7384666 234.635245,89.0771177 L234.635245,88.9117805 L234.800582,88.9117805 C235.131256,88.9117805 235.296594,89.0771177 235.461931,89.0771177 C236.949966,86.5970595 239.760698,78.1648616 238.107326,83.2903152 L235.957942,89.4077921 C236.12328,89.5731293 236.453954,89.5731293 236.784629,89.7384666 C237.941989,86.5970595 239.264687,82.6289664 244.886152,65.7645707 L244.720815,65.268559 L244.224803,65.7645707 C244.059466,64.2765357 245.216826,64.7725474 245.382164,63.6151869 C245.382164,63.2845125 245.216826,61.6311403 245.216826,61.3004659 L245.051489,61.3004659 C245.051489,61.6311403 244.886152,63.1191752 244.39014,63.6151869 L244.39014,61.3004659 C244.39014,61.1351287 244.059466,60.639117 243.728791,60.639117 C243.728791,60.639117 242.736768,60.9697915 242.571431,60.9697915 C238.272663,61.1351287 235.131256,60.8044543 235.131256,58.4897333 C235.131256,58.1590588 235.131256,57.8283844 235.296594,57.49771 C234.800582,57.49771 234.139233,57.0016984 234.139233,56.3403495 C234.139233,53.6949541 241.744745,49.5615238 240.918059,49.0655121 C240.422047,49.5615238 239.430024,49.3961866 239.264687,49.3961866 C242.571431,47.5774772 246.043512,46.9161284 249.846268,46.9161284 C256.29442,46.9161284 261.419873,48.2388261 267.041339,50.2228726 C267.041339,54.6869774 261.419873,52.5375936 260.923862,55.8443379 C260.758524,55.5136634 260.593187,54.8523146 260.097176,54.8523146 C260.097176,54.6869774 259.435827,55.5136634 259.27049,55.5136634 C260.262513,57.1670356 260.097176,62.4578264 260.42785,64.1111985 C261.254536,64.1111985 261.254536,60.3084426 261.254536,58.9857449 L261.254536,57.3323728 C261.419873,57.9937216 261.750548,58.6550705 261.915885,58.8204077 C261.915885,62.2924892 260.923862,65.268559 260.923862,69.5673266 C260.923862,69.5673266 261.089199,69.7326638 261.254536,69.7326638 C261.750548,69.4019893 261.915885,68.4099661 262.081222,67.9139544 C262.081222,72.7087336 260.758524,75.1887918 259.27049,81.1409315 C258.609141,81.8022803 258.443803,82.7943036 258.443803,83.7863269 C258.443803,83.9516641 258.609141,84.2823385 258.609141,84.6130129 C258.609141,87.5890828 254.806385,98.5013389 254.145036,99.4933621 L254.806385,99.4933621 C254.806385,100.81606 252.987675,101.477409 252.987675,102.800106 L253.649024,102.800106 C250.838292,105.941513 244.886152,107.594886 241.41407,109.578932 L230.997826,111.728316 C225.211024,111.728316 222.730965,112.720339 217.770849,109.413595 C217.1095,109.248258 216.613489,109.248258 216.613489,109.248258 C216.613489,109.248258 214.13343,107.429548 213.141407,106.602862 C213.141407,106.602862 212.97607,106.437525 212.810733,106.437525 C211.984047,105.280165 210.661349,104.618816 210,103.461455 C202.229151,93.210548 201.402465,77.9995244 201.402465,65.9299079 L201.402465,60.639117 C201.733139,59.4817566 202.063814,58.6550705 202.063814,57.6630472 L201.733139,57.6630472 C201.733139,55.182989 202.725163,52.2069192 202.725163,49.8921982 L202.725163,49.726861 L202.394488,49.3961866 L202.394488,49.2308493 C202.394488,47.7428144 203.221174,46.2547795 203.221174,45.097419 L202.8905,45.097419 C202.8905,44.9320818 202.8905,44.7667446 203.055837,44.6014074 C204.04786,43.1133725 203.717186,42.1213492 203.882523,40.3026398 C203.882523,40.3026398 204.213198,39.9719654 204.378535,39.9719654 C204.378535,39.8066282 204.543872,39.1452793 204.543872,38.9799421 L204.543872,38.6492677 C205.039884,37.9879188 205.205221,37.1612328 204.874546,36.1692095 L205.205221,36.4998839 C206.693256,34.3505002 206.362581,31.2090931 207.189267,28.8943721 C209.007977,23.9342557 212.314721,19.470151 214.298768,14.6753718 L219.424221,8.72323212 C222.234954,5.41648786 226.03771,1.61373195 230.667152,1.61373195 C230.832489,1.61373195 231.493838,1.77906917 231.493838,1.77906917 C231.659175,1.77906917 233.312547,2.10974359 233.312547,2.10974359 L233.973896,1.77906917 C234.635245,1.77906917 235.296594,2.44041802 235.957942,2.60575523 C238.438001,3.4324413 241.083396,3.26710408 243.894129,3.92845294 C248.854245,5.08581343 251.995652,10.7072787 251.995652,15.6673951 C251.995652,21.1235231 251.003629,26.4143139 247.862222,31.0437559 L247.696885,31.3744303 C246.20885,32.3664536 246.043512,33.8544885 244.886152,34.8465118 C243.067443,36.3345467 241.083396,35.8385351 239.430024,36.4998839 C239.09935,36.6652211 238.272663,37.4919072 238.107326,37.4919072 L235.957942,37.4919072 C235.957942,37.32657 235.627268,36.8305584 235.627268,36.6652211 L235.296594,36.6652211 C235.296594,36.8305584 234.800582,36.9958956 234.635245,37.1612328 L234.635245,35.5078606 L233.973896,35.5078606 C233.973896,35.1771862 233.477884,33.8544885 233.312547,33.6891513 L233.14721,33.3584769 C233.14721,33.3584769 232.981873,33.0278025 232.981873,32.8624652 C232.981873,31.2090931 237.115303,26.5796511 237.115303,23.6035813 L237.115303,23.2729069 L236.453954,23.7689185 L236.453954,23.4382441 C237.611315,20.4621743 238.438001,17.4861044 238.438001,14.1793602 C238.438001,13.0219997 238.438001,12.525988 238.107326,11.2032903 C237.776652,10.8726159 237.611315,10.8726159 237.115303,10.8726159 L236.949966,10.8726159 C232.816535,14.3446974 228.021756,23.2729069 226.533721,28.0676861 C226.533721,28.0676861 226.368384,28.0676861 226.368384,28.2330233 L226.533721,28.5636977 C226.864396,28.2330233 226.864396,27.7370116 227.029733,27.241 C227.525745,26.2489767 228.848442,24.2649302 229.01378,24.2649302 L229.179117,24.2649302 Z M238.438001,50.0575354 L234.139233,53.5296169 L234.139233,53.3642797 C234.800582,52.868268 236.619291,50.0575354 238.438001,50.0575354 Z M260.923862,70.5593498 C259.931838,70.5593498 260.262513,72.3780592 260.262513,73.039408 C260.758524,73.039408 260.923862,72.3780592 260.923862,71.7167103 L260.923862,70.5593498 Z M205.535895,33.8544885 C205.205221,33.8544885 205.205221,34.6811746 205.535895,34.6811746 C205.86657,34.6811746 205.86657,33.8544885 205.535895,33.8544885 Z M232.651198,0.456371462 C232.320524,0.456371462 232.320524,1.11772031 232.651198,1.11772031 C233.14721,1.11772031 233.14721,0.456371462 232.651198,0.456371462 Z M227.691082,87.9197572 C227.856419,88.7464433 228.187093,89.5731293 228.683105,90.2344782 L227.691082,87.9197572 Z M262.411897,66.4259195 C262.411897,66.5912567 262.577234,66.7565939 262.577234,66.9219311 C262.577234,67.0872684 262.411897,67.4179428 262.411897,67.4179428 C262.246559,67.4179428 262.246559,67.2526056 262.246559,66.9219311 C262.246559,66.5912567 262.246559,66.4259195 262.411897,66.4259195 Z M214.298768,70.5593498 L214.298768,71.0553615 L214.794779,71.0553615 L214.794779,70.5593498 L214.298768,70.5593498 Z M226.699059,65.4338962 C226.533721,65.4338962 226.533721,66.2605823 226.699059,66.2605823 C227.029733,66.2605823 227.029733,65.4338962 226.699059,65.4338962 Z M228.352431,35.5078606 C228.021756,35.5078606 228.021756,36.1692095 228.352431,36.1692095 C228.517768,36.1692095 228.517768,35.5078606 228.352431,35.5078606 Z M232.320524,88.9117805 C232.155187,88.9117805 232.155187,89.5731293 232.320524,89.5731293 C232.651198,89.5731293 232.651198,88.9117805 232.320524,88.9117805 Z M226.699059,67.2526056 L226.699059,69.2366521 C226.864396,69.0713149 226.864396,67.4179428 226.699059,67.2526056 Z M226.699059,62.4578264 C226.533721,62.4578264 226.533721,62.953838 226.699059,62.953838 C227.029733,62.953838 227.029733,62.4578264 226.699059,62.4578264 Z M226.699059,70.0633382 C226.533721,70.0633382 226.533721,70.5593498 226.699059,70.5593498 C227.029733,70.5593498 227.029733,70.0633382 226.699059,70.0633382 Z M236.12328,24.2649302 C235.957942,24.2649302 235.957942,24.7609418 236.12328,24.7609418 C236.453954,24.7609418 236.453954,24.2649302 236.12328,24.2649302 Z M206.197244,32.0357792 C206.031907,31.870442 205.701232,32.2011164 205.86657,32.3664536 C206.031907,32.5317908 206.362581,32.2011164 206.197244,32.0357792 Z M214.298768,38.4839305 C214.13343,38.3185933 214.13343,39.1452793 214.298768,38.9799421 C214.629442,38.8146049 214.629442,38.4839305 214.298768,38.4839305 Z M228.352431,26.0836395 C228.187093,25.9183023 228.187093,26.7449884 228.352431,26.7449884 C228.517768,26.5796511 228.517768,26.0836395 228.352431,26.0836395 Z M235.957942,25.0916162 L235.957942,25.4222906 L235.627268,25.7529651 L235.957942,25.0916162 Z M233.312547,1.11772031 C233.312547,0.952383101 232.981873,0.952383101 233.14721,1.11772031 C233.14721,1.28305753 233.312547,1.28305753 233.312547,1.11772031 Z M227.360407,38.4839305 C227.19507,38.3185933 227.19507,38.6492677 227.360407,38.6492677 C227.525745,38.6492677 227.525745,38.4839305 227.360407,38.4839305 Z M157.003979,217.232261 C156.955519,216.677316 156.926755,216.125831 156.926755,215.578457 L157.257429,215.578457 L157.257429,215.560651 L157.003979,217.232261 Z M157.257429,215.560651 L157.003979,217.232261 C157.262907,220.197419 158.084115,223.261397 158.084115,226.325375 L158.084115,227.81341 C156.430743,226.160038 156.59608,223.67998 155.273382,221.695933 L155.273382,222.191945 C155.273382,224.83734 155.604057,227.978748 156.100069,230.78948 C156.100069,230.78948 156.430743,230.78948 156.430743,230.954817 L156.430743,231.946841 L157.753441,238.891004 C157.753441,238.891004 158.084115,239.056341 158.084115,239.221678 L158.084115,239.387015 C158.084115,239.71769 157.753441,241.867073 157.588103,241.867073 C157.588103,241.371062 157.257429,240.379039 156.59608,240.048364 L156.59608,240.709713 C156.59608,242.69376 157.257429,244.347132 157.257429,246.165841 C157.257429,246.661853 156.761417,247.98455 156.100069,247.488539 C156.100069,247.98455 155.769394,249.472585 155.769394,249.80326 C155.43872,251.125957 155.43872,249.968597 154.942708,250.629946 C154.281359,251.621969 154.446696,252.77933 153.123999,252.944667 C153.123999,253.110004 152.627987,252.944667 152.627987,252.944667 C152.46265,253.110004 151.801301,253.93669 151.635964,253.93669 C151.470627,254.102027 150.809278,253.771353 150.64394,253.606016 L150.64394,255.424725 C150.64394,255.424725 150.313266,255.259388 150.313266,255.09405 C150.147929,255.09405 149.982592,254.928713 149.982592,254.598039 C149.982592,255.590062 149.48658,256.582085 148.494557,256.582085 C148.825231,256.086074 147.171859,255.590062 146.675847,254.432702 C146.675847,254.102027 146.51051,253.93669 146.179836,253.606016 C146.51051,254.432702 145.849161,254.598039 145.35315,254.598039 C145.35315,254.598039 145.022475,254.598039 145.022475,254.432702 C144.857138,252.77933 143.865115,251.291295 143.203766,249.472585 C142.873091,247.98455 142.707754,244.016457 141.715731,242.197748 L139.40101,230.458806 C139.40101,230.293469 139.235673,229.63212 139.235673,229.466782 C139.070336,228.309422 137.086289,220.042561 136.755615,219.050538 C136.755615,218.719864 136.590277,218.223852 136.590277,218.223852 C136.590277,218.058515 136.259603,218.389189 136.094266,218.389189 C136.094266,219.877224 136.590277,219.711887 134.936905,220.373236 C134.771568,220.373236 134.606231,220.538573 134.440894,220.538573 L134.440894,221.034585 C134.440894,221.034585 132.456847,221.861271 131.630161,222.191945 C130.307463,222.687957 124.024649,224.010654 123.3633,225.168015 C122.867289,229.301445 122.371277,233.434876 122.040603,237.733643 C121.709928,241.205725 120.883242,244.512469 120.717905,247.98455 L120.221893,247.98455 C120.056556,249.637922 119.725882,251.787306 117.576498,251.787306 L117.080486,251.621969 L116.419137,251.621969 C116.584475,251.621969 116.749812,252.117981 116.749812,252.117981 C116.749812,252.117981 116.915149,252.283318 116.915149,252.448655 L116.749812,252.448655 C116.749812,252.613992 116.2538,252.77933 116.088463,252.77933 L116.088463,254.267364 C115.427114,254.267364 116.584475,253.771353 114.931102,253.771353 C114.931102,253.93669 115.427114,254.432702 115.261777,254.432702 C114.765765,255.259388 113.27773,255.09405 112.285707,256.251411 C112.285707,256.416748 112.12037,256.582085 112.12037,256.582085 C111.293684,256.582085 108.482951,256.91276 107.490928,257.078097 C107.325591,257.078097 106.333567,257.739446 106.333567,257.739446 L105.837556,257.739446 C104.680195,257.739446 104.184184,257.078097 103.522835,256.582085 C103.357498,256.582085 102.530811,256.416748 102.530811,256.251411 C99.885416,254.102027 99.885416,250.96062 99.885416,247.653876 L99.885416,243.355108 C99.885416,242.69376 100.381428,237.237631 100.546765,235.914934 C100.712102,233.930887 101.538788,231.120155 101.373451,228.970771 L106.994916,172.921456 L106.994916,172.425444 L108.648288,150.10492 C108.648288,149.443571 108.813626,147.955536 109.309637,147.12885 C109.1443,146.302164 109.1443,142.664746 109.309637,142.003397 C109.309637,141.011373 109.474974,138.531315 109.640312,138.200641 C109.640312,137.704629 109.970986,136.712606 110.797672,136.712606 C111.128347,136.712606 111.624358,137.208618 111.955033,137.208618 L112.12037,137.208618 C112.781719,136.712606 113.939079,136.381931 115.09644,136.381931 C115.261777,136.381931 115.923126,136.216594 115.923126,136.712606 L118.237847,136.712606 L118.403184,136.051257 C119.395207,136.877943 123.197963,136.051257 124.024649,138.200641 C124.189986,138.200641 124.024649,138.696652 124.024649,138.696652 C124.189986,138.86199 124.355324,139.523339 124.355324,139.688676 C125.18201,139.192664 124.685998,138.035304 125.512684,137.539292 C126.670045,138.035304 125.678021,140.01935 126.33937,140.846036 C128.323417,142.830083 134.275556,140.680699 136.755615,144.814129 L137.416963,144.814129 C137.416963,144.814129 138.243649,146.302164 138.574324,146.963513 C139.235673,147.790199 139.731684,148.782222 140.062359,149.774246 L145.849161,166.14263 C145.849161,166.307967 146.179836,166.969316 146.179836,167.29999 C147.667871,171.764095 148.990568,176.2282 150.313266,180.857642 C150.147929,182.511014 151.139952,185.983095 151.470627,187.305793 C151.635964,188.793828 152.793324,189.951189 152.627987,191.439223 L153.950685,197.5567 L153.950685,198.383386 L153.454673,197.226026 L153.123999,197.226026 L157.257429,214.75177 L157.257429,215.560651 Z M132.456847,215.578457 C132.787521,215.578457 135.432917,216.239805 135.598254,216.405143 L135.928929,216.405143 L135.928929,215.247782 L130.968812,193.753944 C130.638138,192.596584 130.638138,192.26591 130.4728,191.108549 C129.811452,188.793828 128.488754,183.007026 128.323417,182.841688 L128.158079,182.345677 L124.851335,213.759747 L124.851335,215.909131 C124.851335,215.909131 126.835382,216.074468 127.496731,216.074468 L127.992742,216.074468 C129.646114,216.074468 130.638138,215.413119 132.456847,215.578457 Z M120.552568,204.170189 L120.552568,207.972945 C121.048579,206.980921 121.048579,204.6662 121.048579,204.170189 L121.379254,203.839514 L121.048579,203.674177 L120.552568,204.170189 Z M154.281359,218.389189 C154.281359,219.050538 154.116022,220.70391 154.942708,221.034585 L154.942708,220.042561 C154.942708,219.711887 155.108045,218.389189 154.281359,218.389189 Z M120.221893,209.46098 C119.891219,209.791654 119.891219,210.453003 119.891219,210.949015 L119.891219,211.775701 L120.221893,211.445026 L120.221893,209.46098 Z M154.942708,202.020805 L154.942708,201.524793 C155.273382,201.855468 155.273382,202.35148 155.273382,202.682154 L155.273382,203.343503 C154.942708,202.682154 154.942708,202.516817 154.942708,202.020805 Z M152.297313,211.114352 C152.297313,211.114352 152.627987,211.610363 152.627987,211.775701 C152.627987,211.941038 152.627987,212.271712 152.793324,212.43705 L152.793324,210.949015 C152.793324,210.949015 152.297313,210.949015 152.297313,211.114352 Z M121.379254,199.871421 C121.213917,199.706084 121.213917,201.194119 121.379254,201.028782 C121.709928,200.863445 121.709928,200.036759 121.379254,199.871421 Z M116.749812,238.229655 C116.584475,238.064318 116.584475,239.221678 116.749812,239.221678 C117.080486,239.056341 117.080486,238.229655 116.749812,238.229655 Z M132.456847,142.830083 C132.126173,142.830083 132.126173,143.491432 132.456847,143.491432 C132.787521,143.491432 132.787521,142.830083 132.456847,142.830083 Z M110.466998,244.843143 C110.136323,244.843143 110.136323,245.504492 110.466998,245.504492 C110.797672,245.504492 110.797672,244.843143 110.466998,244.843143 Z M150.809278,255.590062 C150.478603,255.590062 150.478603,256.251411 150.809278,256.251411 C151.139952,256.251411 151.139952,255.590062 150.809278,255.590062 Z M154.281359,223.183968 C153.950685,223.183968 153.950685,223.67998 154.281359,223.67998 C154.612034,223.67998 154.612034,223.183968 154.281359,223.183968 Z M121.709928,191.439223 C121.379254,191.439223 121.379254,191.935235 121.709928,191.935235 C122.040603,191.935235 122.040603,191.439223 121.709928,191.439223 Z M119.064533,217.066491 L119.395207,217.066491 L119.395207,216.074468 L119.064533,216.735817 L119.064533,217.066491 Z M151.966638,250.464609 C151.635964,250.464609 151.635964,250.96062 151.966638,250.96062 C152.297313,250.96062 152.297313,250.464609 151.966638,250.464609 Z M119.560544,212.933061 L119.560544,213.59441 L119.891219,213.59441 L119.891219,212.933061 L119.560544,212.933061 Z M156.100069,211.775701 C155.769394,211.775701 155.769394,212.271712 156.100069,212.271712 C156.430743,212.271712 156.430743,211.775701 156.100069,211.775701 Z M119.064533,231.616166 C118.733858,231.616166 118.733858,232.112178 119.064533,232.112178 C119.395207,232.112178 119.395207,231.616166 119.064533,231.616166 Z M156.926755,227.81341 C156.59608,227.81341 156.59608,228.309422 156.926755,228.309422 C157.257429,228.309422 157.257429,227.81341 156.926755,227.81341 Z M117.907172,227.482736 C117.741835,227.317399 117.741835,228.144085 117.907172,228.144085 C118.237847,227.978748 118.237847,227.482736 117.907172,227.482736 Z M125.678021,153.577002 C125.512684,153.577002 125.512684,154.23835 125.678021,154.23835 C126.008696,154.23835 126.008696,153.577002 125.678021,153.577002 Z M156.59608,229.466782 C156.430743,229.466782 156.430743,230.128131 156.59608,230.128131 C156.926755,230.128131 156.926755,229.466782 156.59608,229.466782 Z M150.478603,202.682154 C150.313266,202.682154 150.313266,203.343503 150.478603,203.343503 C150.809278,203.343503 150.809278,202.682154 150.478603,202.682154 Z M120.717905,241.867073 C120.552568,241.867073 120.552568,242.528422 120.717905,242.528422 C121.048579,242.528422 121.048579,241.867073 120.717905,241.867073 Z M153.950685,217.231829 C153.950685,217.397166 153.950685,217.72784 154.281359,217.893178 L154.281359,217.231829 L153.950685,217.231829 Z M156.100069,239.221678 C156.100069,239.221678 156.265406,239.552352 156.430743,239.71769 L156.430743,238.891004 C156.265406,238.891004 156.100069,239.056341 156.100069,239.221678 Z M116.749812,236.245608 L116.749812,236.576283 L117.080486,236.906957 L117.080486,236.245608 L116.749812,236.245608 Z M150.313266,184.991072 C149.982592,184.991072 149.982592,185.487084 150.313266,185.487084 C150.478603,185.487084 150.478603,184.991072 150.313266,184.991072 Z M156.430743,213.263736 C156.100069,213.263736 156.100069,213.759747 156.430743,213.759747 C156.59608,213.759747 156.59608,213.263736 156.430743,213.263736 Z M113.27773,159.198467 C112.947056,159.198467 112.947056,159.694479 113.27773,159.694479 C113.443068,159.694479 113.443068,159.198467 113.27773,159.198467 Z M104.680195,240.048364 C104.349521,240.048364 104.349521,240.544376 104.680195,240.544376 C104.845532,240.544376 104.845532,240.048364 104.680195,240.048364 Z M156.59608,226.65605 C156.430743,226.65605 156.430743,227.152061 156.59608,227.152061 C156.926755,227.152061 156.926755,226.65605 156.59608,226.65605 Z M155.43872,203.674177 C155.273382,203.50884 155.273382,204.6662 155.43872,204.500863 C155.604057,204.335526 155.604057,203.674177 155.43872,203.674177 Z M119.560544,214.421096 C119.395207,214.586433 119.395207,214.917108 119.395207,215.247782 L119.560544,215.247782 L119.560544,214.421096 Z M151.635964,207.311596 C151.470627,207.311596 151.470627,208.138282 151.635964,207.972945 C151.801301,207.807608 151.801301,207.476933 151.635964,207.311596 Z M106.002893,196.564677 L106.002893,196.895351 L106.333567,196.895351 L106.333567,196.564677 L106.002893,196.564677 Z M153.123999,212.933061 C152.958661,212.767724 152.958661,213.59441 153.123999,213.59441 C153.289336,213.429073 153.289336,212.933061 153.123999,212.933061 Z M126.670045,186.975119 C126.504707,186.975119 126.504707,187.636468 126.670045,187.636468 C126.835382,187.636468 126.835382,187.140456 126.670045,186.975119 Z M116.088463,246.331178 C115.923126,246.331178 115.923126,246.82719 116.088463,246.661853 C116.419137,246.661853 116.419137,246.496515 116.088463,246.331178 Z M116.419137,241.867073 C116.2538,241.867073 116.2538,242.363085 116.419137,242.197748 C116.749812,242.197748 116.749812,242.032411 116.419137,241.867073 Z M153.454673,214.421096 C153.289336,214.255759 153.289336,214.917108 153.454673,214.917108 C153.62001,214.75177 153.62001,214.421096 153.454673,214.421096 Z M153.785348,215.909131 C153.785348,216.074468 153.785348,216.239805 153.950685,216.405143 L153.950685,216.074468 C153.950685,215.909131 153.950685,215.743794 153.785348,215.578457 L153.785348,215.909131 Z M107.325591,182.345677 C106.994916,182.345677 106.994916,182.676351 107.325591,182.676351 L107.325591,182.345677 Z M122.040603,187.801805 L122.040603,188.132479 L122.20594,188.132479 L122.20594,187.801805 L122.040603,187.801805 Z M156.59608,214.421096 C156.430743,214.421096 156.430743,214.586433 156.430743,214.75177 L156.430743,214.917108 L156.59608,214.75177 L156.59608,214.421096 Z M151.966638,229.301445 L151.966638,229.466782 L152.297313,229.466782 L152.297313,229.301445 L151.966638,229.301445 Z M121.048579,202.186142 L121.048579,202.516817 L121.379254,202.516817 L121.048579,202.186142 Z M133.283533,197.5567 L133.283533,197.722038 L133.614208,197.722038 L133.614208,197.5567 L133.283533,197.5567 Z M154.281359,199.210072 C154.116022,199.210072 154.116022,199.540747 154.281359,199.540747 C154.446696,199.540747 154.446696,199.210072 154.281359,199.210072 Z M150.809278,204.170189 C150.64394,204.170189 150.64394,204.500863 150.809278,204.500863 C150.974615,204.500863 150.974615,204.170189 150.809278,204.170189 Z M152.297313,222.191945 C152.131975,222.191945 152.131975,222.52262 152.297313,222.52262 C152.46265,222.52262 152.46265,222.191945 152.297313,222.191945 Z M154.612034,200.367433 C154.446696,200.367433 154.446696,200.698107 154.612034,200.698107 C154.777371,200.698107 154.777371,200.367433 154.612034,200.367433 Z M151.470627,205.988898 C151.305289,205.823561 151.305289,206.650247 151.470627,206.48491 L151.470627,205.988898 Z M104.018846,217.066491 C103.688172,217.066491 103.688172,217.231829 104.018846,217.231829 C104.184184,217.231829 104.184184,217.066491 104.018846,217.066491 Z M107.490928,169.780049 C107.325591,169.780049 107.325591,170.27606 107.490928,170.110723 C107.656265,170.110723 107.656265,169.945386 107.490928,169.780049 Z M117.080486,235.088248 C116.915149,234.92291 116.915149,235.418922 117.080486,235.418922 C117.245823,235.253585 117.245823,235.088248 117.080486,235.088248 Z M111.789695,255.590062 C111.955033,255.424725 111.459021,255.424725 111.624358,255.590062 C111.624358,255.755399 111.789695,255.755399 111.789695,255.590062 Z M151.470627,189.620514 C151.305289,189.620514 151.305289,189.951189 151.470627,189.951189 L151.470627,189.620514 Z M225.211024,250.96062 C225.211024,250.96062 225.045686,250.96062 225.045686,250.795283 C224.880349,250.795283 224.715012,250.629946 224.715012,250.464609 L224.549675,250.464609 C223.888326,250.464609 224.549675,251.456632 223.557651,251.456632 C223.06164,251.456632 222.565628,251.456632 222.234954,251.125957 C222.234954,251.291295 222.069617,251.952643 221.904279,251.952643 L221.738942,252.117981 L220.08557,249.968597 C214.298768,238.560329 207.519942,227.978748 201.237128,216.901154 C196.93836,209.295642 193.300941,201.524793 189.498186,193.588607 C189.332848,194.58063 189.332848,198.714061 189.167511,199.706084 C188.836837,211.279689 188.506162,222.853294 188.506162,234.592236 L188.506162,240.048364 C188.506162,239.883027 188.010151,239.71769 188.010151,239.71769 C187.844813,239.71769 187.679476,239.883027 187.679476,240.048364 L187.679476,242.69376 L187.348802,243.024434 L187.348802,247.653876 C187.348802,248.645899 186.687453,249.472585 186.522116,250.464609 L186.026104,250.464609 C186.026104,250.464609 185.199418,250.299271 185.034081,250.299271 L184.538069,250.299271 C184.538069,250.464609 183.87672,252.613992 183.711383,252.77933 L182.71936,252.77933 L182.554023,253.606016 C182.388685,253.771353 181.065988,253.771353 180.90065,253.93669 L180.404639,254.598039 C180.073964,254.598039 178.916604,255.259388 178.58593,255.424725 L178.255255,255.424725 C178.255255,255.424725 177.428569,255.259388 177.428569,255.09405 L177.263232,255.09405 C176.105871,255.09405 174.452499,256.086074 173.295139,256.251411 C170.319069,256.251411 168.831034,253.440678 167.508336,250.96062 C167.508336,250.795283 167.342999,250.795283 167.342999,250.629946 L167.012325,249.968597 C166.350976,246.661853 165.689627,237.072294 165.193615,229.301445 L165.193615,223.845317 C165.193615,204.996875 166.68165,186.31377 166.68165,167.134653 L166.68165,152.419641 C166.846987,150.435595 166.846987,146.302164 168.169685,146.302164 C168.996371,146.302164 168.996371,147.294188 169.988394,147.294188 C170.484406,147.294188 170.81508,146.798176 171.476429,146.798176 C173.625813,146.798176 180.239302,148.451548 181.892674,149.608909 C182.223348,150.600932 182.388685,151.758292 182.554023,152.584978 L182.554023,152.750316 C183.050034,152.750316 183.380709,150.766269 183.380709,150.600932 C183.546046,151.592955 183.711383,152.750316 184.042058,153.907676 L184.538069,153.907676 C184.703406,153.907676 185.199418,153.577002 185.199418,153.577002 L186.026104,154.569025 L186.026104,154.403688 C186.191441,154.403688 186.687453,154.23835 186.85279,154.23835 L187.348802,155.065037 C188.6715,156.883746 190.820883,158.041106 192.474255,159.694479 C193.796953,161.347851 194.954314,163.497234 196.111674,165.150607 C200.741116,171.433421 207.354605,185.817758 208.015953,185.817758 C208.015953,185.817758 208.015953,185.652421 208.181291,185.652421 C208.677302,186.31377 209.503988,187.967142 209.669326,188.959165 L210.165337,190.777875 C210.496012,193.257933 213.306744,197.887375 214.629442,201.524793 C215.95214,204.996875 216.613489,208.138282 218.597535,211.610363 C218.762872,211.279689 218.92821,211.114352 218.92821,210.783677 C218.92821,210.453003 218.762872,209.956991 218.762872,209.626317 C218.762872,201.359456 219.754896,195.407317 219.754896,187.801805 L219.754896,184.49506 L222.565628,161.182513 C222.896303,160.686502 223.06164,160.025153 223.06164,159.363804 L223.06164,159.03313 L225.872372,144.483455 C226.699059,143.491432 227.525745,133.901873 230.005803,133.901873 L230.501814,133.901873 C230.336477,134.232548 229.509791,135.88592 229.509791,136.547269 L229.509791,136.877943 C229.675128,136.547269 232.320524,134.397885 232.320524,134.397885 C232.320524,134.563222 232.320524,135.555245 232.816535,135.720583 C232.816535,135.555245 233.14721,134.893897 233.14721,134.893897 L233.477884,134.893897 L233.973896,135.389908 L234.635245,134.563222 C234.800582,134.563222 234.965919,134.728559 234.965919,134.893897 C234.965919,135.059234 234.800582,135.224571 234.800582,135.389908 C234.965919,135.224571 235.461931,135.059234 235.627268,135.059234 L236.12328,135.720583 L237.611315,135.720583 C237.776652,135.720583 238.272663,136.216594 238.272663,136.381931 L238.934012,136.051257 C239.760698,136.216594 239.926036,136.547269 239.926036,137.04328 C239.926036,138.365978 238.934012,140.184687 238.603338,141.507385 C236.949966,147.12885 235.792605,157.710432 232.320524,214.917108 C232.320524,219.877224 232.485861,224.672003 232.485861,229.301445 C232.485861,230.624143 232.320524,231.781503 232.320524,233.104201 C232.320524,233.600213 232.320524,233.930887 232.485861,234.261562 L232.485861,236.906957 C232.485861,241.867073 231.824512,242.69376 229.179117,246.331178 C228.848442,246.82719 228.517768,247.819213 228.021756,248.149888 C228.021756,247.98455 227.691082,247.819213 227.691082,247.819213 L227.525745,247.819213 C227.856419,247.98455 225.045686,249.968597 225.045686,250.795283 L225.211024,250.96062 Z M229.01378,139.027327 C228.021756,139.027327 228.187093,139.688676 228.187093,140.184687 L228.187093,141.176711 C228.683105,140.515362 229.01378,139.688676 229.01378,139.027327 Z M222.234954,251.952643 C222.400291,251.952643 222.400291,252.117981 222.400291,252.448655 C222.400291,252.613992 222.400291,252.77933 222.234954,252.77933 C222.069617,252.77933 221.904279,252.613992 221.904279,252.448655 C221.904279,252.117981 222.069617,251.952643 222.234954,251.952643 Z M187.679476,236.245608 C187.679476,236.576283 187.679476,236.906957 188.010151,236.906957 L188.010151,236.74162 C188.010151,236.410945 188.010151,236.080271 187.679476,236.080271 L187.679476,236.245608 Z M214.960116,208.138282 C214.794779,208.138282 214.629442,208.303619 214.629442,208.468956 C214.629442,208.634294 214.794779,208.799631 214.960116,208.799631 C215.125454,208.799631 215.125454,208.634294 215.125454,208.468956 C215.125454,208.303619 215.125454,208.138282 214.960116,208.138282 Z M224.715012,233.600213 C224.549675,233.600213 224.384338,233.76555 224.384338,233.930887 C224.384338,234.096224 224.549675,234.261562 224.715012,234.261562 C224.715012,234.261562 224.880349,234.096224 224.880349,233.930887 C224.880349,233.76555 224.715012,233.600213 224.715012,233.600213 Z M189.167511,157.21442 C189.002174,157.21442 188.836837,157.379758 188.836837,157.545095 C188.836837,157.545095 189.002174,157.710432 189.167511,157.710432 C189.332848,157.710432 189.332848,157.545095 189.332848,157.545095 C189.332848,157.379758 189.332848,157.21442 189.167511,157.21442 Z M232.816535,150.600932 C232.651198,150.600932 232.485861,150.766269 232.485861,150.931606 C232.485861,150.931606 232.651198,151.096943 232.816535,151.096943 C232.981873,151.096943 232.981873,150.931606 232.981873,150.931606 C232.981873,150.766269 232.981873,150.600932 232.816535,150.600932 Z M208.84264,187.47113 C208.677302,187.47113 208.677302,187.636468 208.677302,187.801805 C208.677302,187.967142 208.677302,188.132479 208.84264,188.132479 C209.007977,188.132479 209.007977,187.967142 209.007977,187.801805 C209.007977,187.636468 209.007977,187.47113 208.84264,187.47113 Z M222.896303,161.513188 C222.730965,161.513188 222.565628,161.678525 222.565628,161.843862 C222.565628,161.843862 222.730965,162.0092 222.896303,162.0092 L223.06164,161.843862 C223.06164,161.678525 222.896303,161.513188 222.896303,161.513188 Z M178.916604,241.040387 C178.751267,241.040387 178.58593,241.205725 178.58593,241.371062 C178.58593,241.371062 178.751267,241.536399 178.916604,241.536399 L179.081941,241.371062 C179.081941,241.205725 178.916604,241.205725 178.916604,241.040387 Z M174.287162,176.062863 C174.121825,176.062863 174.121825,176.2282 174.121825,176.393537 C174.121825,176.393537 174.121825,176.558874 174.287162,176.558874 C174.452499,176.558874 174.452499,176.393537 174.452499,176.393537 C174.452499,176.2282 174.452499,176.062863 174.287162,176.062863 Z M175.60986,238.229655 L175.444522,238.229655 C175.444522,238.229655 175.279185,238.229655 175.279185,238.394992 C175.279185,238.560329 175.444522,238.560329 175.60986,238.560329 L175.775197,238.394992 L175.60986,238.229655 Z M229.179117,137.373955 L229.179117,137.869966 L229.509791,137.373955 L229.179117,137.373955 Z M169.161708,224.83734 L169.161708,225.002678 L169.492383,225.002678 L169.161708,224.83734 Z M177.428569,248.480562 L177.428569,248.645899 L177.593906,248.645899 L177.428569,248.480562 Z M246.675933,150.556617 L246.870199,150.944324 L246.870199,151.096943 C246.704861,151.096943 246.704861,150.931606 246.704861,150.931606 C246.688751,150.802724 246.679312,150.677765 246.675933,150.556617 Z M246.870199,150.944324 L246.675933,150.556617 C246.609955,148.191119 248.854245,147.278077 248.854245,146.963513 L248.854245,146.798176 C248.854245,146.632839 248.523571,146.302164 248.358233,146.302164 L249.515594,143.822106 L249.18492,143.656769 C250.838292,142.99542 253.31835,140.515362 255.302396,140.515362 L255.467734,140.515362 C254.806385,141.672722 252.657001,141.176711 251.995652,142.499408 L252.657001,142.499408 L255.137059,141.342048 C255.633071,141.176711 256.459757,141.011373 256.459757,140.184687 L257.45178,140.184687 C257.45178,139.854013 257.286443,139.854013 257.617117,139.523339 C261.58521,138.696652 265.387966,137.869966 269.35606,138.200641 C269.521397,138.200641 269.852071,137.869966 270.017408,137.869966 C270.51342,137.869966 272.166792,138.035304 272.332129,138.531315 L274.150839,138.531315 C281.756351,139.688676 287.212479,142.003397 293.66063,145.640815 C295.314002,146.467501 296.306025,147.790199 297.959397,148.782222 C308.375642,157.875769 320.279921,170.606735 319.618572,185.487084 C319.78391,185.817758 320.114584,186.31377 320.114584,186.479107 L320.114584,186.644444 C320.114584,186.809781 319.949247,186.975119 319.949247,186.975119 C320.279921,194.58063 318.957223,202.020805 317.303851,209.46098 C314.493119,223.018631 309.533002,234.096224 299.61277,243.520446 C296.967374,245.835167 294.321979,247.488539 291.676583,249.472585 L291.345909,249.472585 C291.345909,248.645899 294.81799,246.82719 295.644676,245.835167 L295.314002,245.835167 L290.849897,248.811236 C290.188548,248.645899 289.196525,249.637922 288.535176,249.637922 C288.204502,249.968597 286.220455,250.96062 285.559106,251.291295 L287.212479,249.637922 L287.047141,249.637922 C286.881804,249.637922 282.748374,251.456632 282.252362,251.787306 C282.087025,251.787306 281.260339,252.117981 281.260339,252.117981 C280.929664,252.117981 280.268316,252.283318 280.268316,252.283318 C280.268316,252.613992 280.102978,253.771353 279.937641,253.93669 C279.937641,254.102027 279.772304,254.267364 279.606967,254.267364 C278.614943,254.267364 278.614943,253.93669 278.284269,253.110004 L277.953595,253.110004 C277.953595,253.110004 277.62292,253.606016 277.62292,253.771353 C277.62292,254.102027 277.457583,255.755399 277.457583,255.920737 C275.473536,255.755399 273.654827,258.07012 273.158815,259.392818 C273.158815,259.227481 272.662804,259.227481 272.497467,259.227481 L272.001455,259.392818 L271.670781,259.392818 C268.694711,259.392818 264.56128,260.715516 261.089199,253.93669 C260.42785,254.432702 260.262513,253.275341 259.766501,253.110004 C259.105152,253.110004 258.113129,253.275341 257.617117,252.613992 C258.278466,252.283318 258.278466,251.291295 259.105152,251.291295 L259.105152,249.472585 C259.766501,249.472585 260.593187,248.480562 260.593187,247.819213 C260.593187,247.157864 259.766501,247.488539 259.766501,246.82719 C259.766501,246.000504 260.262513,245.835167 260.262513,245.173818 L260.262513,245.00848 L258.939815,231.450829 L258.939815,230.954817 C257.617117,217.231829 256.790431,203.50884 255.963745,189.785851 C255.963745,188.463154 255.633071,186.975119 255.467734,185.487084 C254.971722,178.212246 254.806385,170.441397 254.641048,163.001223 C254.641048,162.0092 254.806385,158.537118 254.310373,157.21442 C253.979699,156.718409 247.862222,153.246327 247.200873,153.577002 C247.531547,153.246327 247.531547,153.08099 247.531547,152.584978 C247.531547,151.758292 247.36621,151.262281 247.200873,150.435595 C247.200873,150.600932 246.870199,150.931606 246.870199,150.931606 L246.870199,150.944324 Z M277.457583,155.891723 C278.284269,177.054886 279.606967,198.052712 281.260339,219.215875 C281.260339,220.042561 281.425676,221.034585 281.425676,221.861271 C281.591013,224.506666 282.087025,231.285492 282.252362,231.450829 L282.583037,232.277515 C282.748374,232.277515 283.57506,231.616166 283.740397,231.450829 C284.236409,231.120155 286.716467,228.474759 287.377816,227.81341 C297.628723,216.901154 302.754177,198.218049 302.754177,183.668374 C302.754177,173.748142 299.61277,164.489258 293.164618,157.049083 C292.337932,156.222397 291.180572,154.899699 290.188548,154.403688 C287.047141,152.750316 283.57506,152.584978 279.937641,152.584978 C279.606967,152.584978 278.614943,152.750316 278.284269,152.750316 C277.953595,152.750316 277.62292,153.08099 277.457583,153.411664 L277.457583,155.891723 Z M280.433653,227.81341 C280.59899,229.301445 281.095002,233.269538 281.260339,233.269538 L281.425676,233.269538 L281.425676,232.277515 C281.260339,230.624143 280.929664,226.490713 280.764327,226.325375 L280.433653,225.829364 L280.433653,227.81341 Z M300.604793,240.87505 L297.959397,243.685783 C297.959397,243.685783 298.455409,243.520446 298.620746,243.355108 L300.77013,241.205725 L300.77013,240.87505 L300.604793,240.87505 Z M280.268316,221.365259 C280.102978,221.365259 280.102978,223.183968 280.268316,223.018631 C280.433653,222.687957 280.433653,221.695933 280.268316,221.365259 Z M296.471362,244.512469 C296.140688,244.512469 296.140688,245.173818 296.471362,245.173818 C296.802037,245.173818 296.802037,244.512469 296.471362,244.512469 Z M267.702687,138.531315 C267.372013,138.531315 267.372013,139.027327 267.702687,139.027327 C268.033362,139.027327 268.033362,138.531315 267.702687,138.531315 Z M269.686734,138.200641 C269.35606,138.200641 269.35606,138.696652 269.686734,138.696652 C270.017408,138.696652 270.017408,138.200641 269.686734,138.200641 Z M282.583037,251.787306 C282.252362,251.787306 282.252362,252.283318 282.583037,252.283318 C282.913711,252.283318 282.913711,251.787306 282.583037,251.787306 Z M249.515594,146.467501 C249.18492,146.467501 249.18492,147.12885 249.515594,147.12885 C249.680931,147.12885 249.680931,146.467501 249.515594,146.467501 Z M258.939815,139.523339 C258.609141,139.523339 258.609141,140.184687 258.939815,140.184687 C259.105152,140.184687 259.105152,139.523339 258.939815,139.523339 Z M295.148665,238.891004 C294.81799,238.891004 294.81799,239.552352 295.148665,239.552352 C295.314002,239.552352 295.314002,238.891004 295.148665,238.891004 Z M284.73242,251.456632 C284.567083,251.456632 284.567083,252.117981 284.73242,252.117981 C285.063095,252.117981 285.063095,251.456632 284.73242,251.456632 Z M298.620746,224.672003 C298.124735,224.672003 298.124735,225.168015 298.620746,225.168015 C298.786083,225.168015 298.786083,224.672003 298.620746,224.672003 Z M305.730246,234.096224 C305.399572,234.096224 305.399572,234.592236 305.730246,234.592236 C305.895584,234.592236 305.895584,234.096224 305.730246,234.096224 Z M258.278466,177.054886 C258.113129,177.054886 258.113129,177.550898 258.278466,177.550898 C258.609141,177.550898 258.609141,177.054886 258.278466,177.054886 Z M303.911537,171.929432 C303.580863,171.929432 303.580863,172.425444 303.911537,172.425444 C304.076874,172.425444 304.076874,171.929432 303.911537,171.929432 Z M259.105152,175.401514 C258.939815,175.401514 258.939815,175.897525 259.105152,175.897525 C259.435827,175.897525 259.435827,175.401514 259.105152,175.401514 Z M270.678757,138.531315 C270.348083,138.531315 270.348083,139.027327 270.678757,139.027327 C270.844094,139.027327 270.844094,138.531315 270.678757,138.531315 Z M250.838292,142.99542 L250.838292,143.326094 L251.168966,143.326094 L251.168966,142.99542 L250.838292,142.99542 Z M264.065269,139.027327 C264.065269,138.86199 263.569257,138.86199 263.734594,139.027327 C263.734594,139.358001 263.899931,139.358001 264.065269,139.027327 Z M315.319805,214.586433 C315.154468,214.586433 315.154468,215.082445 315.319805,214.917108 C315.650479,214.917108 315.650479,214.75177 315.319805,214.586433 Z M301.431479,163.16656 L301.431479,163.662572 L301.596816,163.662572 L301.596816,163.16656 L301.431479,163.16656 Z M265.387966,139.027327 C265.387966,138.86199 265.057292,138.86199 265.222629,139.027327 C265.222629,139.358001 265.387966,139.358001 265.387966,139.027327 Z M288.865851,144.979467 L288.535176,145.310141 L288.865851,145.310141 L288.865851,144.979467 Z M280.268316,149.939583 C280.268316,149.774246 279.937641,149.774246 279.937641,149.939583 L280.268316,149.939583 Z M297.298049,244.347132 C297.463386,244.181794 297.132711,244.181794 297.132711,244.347132 C297.132711,244.512469 297.298049,244.512469 297.298049,244.347132 Z M269.025385,138.696652 C269.190722,138.531315 268.860048,138.531315 268.860048,138.696652 C268.860048,138.86199 269.025385,138.86199 269.025385,138.696652 Z M300.77013,237.237631 L301.100804,237.402969 L301.100804,237.237631 L300.77013,237.237631 Z M172.964464,408.545355 C172.964464,408.049343 172.799127,406.726646 172.799127,406.561309 C172.63379,406.230634 172.468453,405.734622 172.468453,405.569285 C172.303115,405.403948 171.972441,405.734622 171.972441,405.734622 L171.972441,407.553332 C171.145755,407.553332 170.484406,400.939843 168.996371,400.278494 L165.358952,338.27704 C165.52429,336.623667 165.193615,335.135632 165.193615,333.48226 L165.193615,326.207423 C165.193615,325.380737 164.862941,319.593934 164.862941,318.932586 L164.862941,318.601911 C164.862941,318.271237 165.193615,314.633818 165.193615,314.137806 L165.193615,313.145783 C165.193615,312.484434 164.862941,312.15376 164.862941,311.492411 C164.862941,310.831062 165.193615,310.169713 165.193615,309.343027 C165.193615,309.012353 165.193615,308.516341 164.862941,308.185667 L164.862941,294.95869 C161.886871,294.95869 158.910801,296.612062 155.43872,296.612062 L152.793324,296.612062 C152.131975,296.11605 151.305289,295.950713 150.64394,295.620039 C149.817254,294.95869 149.982592,293.470655 149.321243,292.809306 C148.990568,292.313294 148.659894,292.313294 148.659894,292.313294 L148.659894,291.817283 C148.659894,290.16391 152.131975,289.833236 153.123999,289.502562 C156.926755,288.345201 160.564173,286.857166 164.532266,286.03048 C166.846987,285.534469 172.63379,286.03048 174.287162,284.542445 C181.561999,284.87312 189.002174,283.881096 196.277011,283.881096 L205.039884,283.881096 C208.015953,284.707782 210.165337,284.211771 213.141407,286.03048 L213.141407,286.691829 C213.141407,287.022503 212.97607,288.014527 212.97607,288.014527 C212.97607,288.014527 212.149384,288.179864 211.984047,288.179864 C211.818709,288.345201 210.826686,288.510538 210.661349,288.675876 C208.84264,289.337224 207.02393,289.833236 205.039884,290.16391 C200.741116,290.825259 196.277011,290.825259 191.978244,291.155934 C191.151558,291.155934 189.167511,291.486608 189.167511,291.486608 L188.836837,291.817283 L188.836837,301.241504 C188.836837,302.233527 189.167511,310.004376 190.324872,358.117505 C190.324872,358.282842 190.655546,358.778854 190.820883,358.778854 C190.490209,362.250935 191.151558,365.723017 191.316895,369.195098 C191.647569,375.64325 192.308918,382.091401 192.308918,388.539552 C192.308918,388.539552 191.978244,389.035564 191.978244,389.200901 L191.978244,393.168994 C189.82886,393.168994 191.482232,399.121134 190.159534,399.121134 L189.498186,398.955797 C189.332848,398.955797 189.002174,399.121134 188.836837,399.121134 C188.836837,398.955797 188.6715,398.129111 188.175488,397.963773 L188.010151,398.294448 L187.183465,403.750576 C187.183465,403.750576 187.018127,403.915913 187.018127,404.08125 C187.018127,403.254564 186.687453,402.097204 186.026104,401.766529 L185.530092,402.097204 L185.530092,405.569285 C184.538069,405.734622 181.561999,409.041367 180.569976,409.041367 C179.577953,409.041367 179.081941,408.545355 178.420592,408.049343 L178.089918,408.049343 C178.089918,408.214681 177.759243,408.87603 177.759243,409.041367 L177.593906,409.041367 C177.428569,409.041367 176.76722,408.710692 176.76722,408.710692 C176.105871,408.710692 176.271209,409.041367 175.444522,409.041367 L174.617836,409.041367 C174.783174,408.049343 173.129801,408.380018 172.964464,408.545355 Z M190.324872,323.066016 L190.98622,323.066016 L190.98622,328.356807 L191.482232,328.356807 L191.647569,330.010179 C191.482232,329.844842 191.316895,329.514167 191.316895,329.34883 L190.98622,329.514167 C190.98622,330.671528 191.316895,331.167539 190.820883,332.159563 C190.655546,331.167539 190.490209,326.042086 190.324872,325.050062 L190.324872,323.066016 Z M191.151558,341.087772 L191.151558,339.103726 C191.316895,339.269063 191.978244,339.599737 191.978244,339.765074 L191.978244,340.095749 C191.978244,340.261086 191.647569,340.426423 191.482232,340.426423 L191.482232,346.709237 C191.316895,345.882551 191.151558,341.914458 191.151558,341.087772 Z M190.324872,318.436574 C190.820883,319.593934 190.820883,320.916632 190.820883,322.073993 L190.324872,322.073993 L190.324872,318.436574 Z M191.316895,348.693284 L191.647569,349.189296 L191.647569,352.826714 C191.482232,351.834691 191.316895,349.850644 191.316895,349.189296 L191.316895,348.693284 Z M192.308918,360.432226 C192.143581,359.770877 192.143581,365.723017 192.308918,365.061668 C192.474255,364.400319 192.474255,361.093575 192.308918,360.432226 Z M191.978244,354.976098 C191.812907,354.480086 191.812907,359.440203 191.978244,358.778854 C192.143581,358.117505 192.143581,355.637447 191.978244,354.976098 Z M189.332848,396.310401 C189.332848,396.641076 189.498186,396.97175 189.82886,397.137087 L190.159534,396.806413 C189.994197,396.475739 189.663523,396.310401 189.332848,396.310401 Z M190.820883,333.48226 C190.490209,333.316923 190.490209,334.804958 190.820883,334.804958 C190.98622,334.639621 190.98622,333.647598 190.820883,333.48226 Z M189.167511,401.105181 C189.002174,400.939843 189.002174,402.92389 189.167511,402.758553 C189.332848,402.427878 189.332848,401.435855 189.167511,401.105181 Z M211.984047,286.691829 L212.149384,286.361155 C212.480058,286.526492 212.645395,286.857166 212.645395,287.022503 C212.314721,287.022503 212.149384,287.022503 211.984047,286.691829 Z M191.978244,336.292993 C191.812907,336.127656 191.812907,338.111702 191.978244,337.946365 C192.143581,337.781028 192.143581,336.623667 191.978244,336.292993 Z M171.807104,402.92389 L171.807104,404.246588 L171.972441,404.246588 L171.972441,402.92389 L171.807104,402.92389 Z M191.647569,322.404667 C191.482232,322.404667 191.482232,323.231353 191.647569,323.066016 C191.978244,322.900679 191.978244,322.404667 191.647569,322.404667 Z M192.639593,368.864424 C192.474255,368.699087 192.474255,370.021784 192.639593,369.856447 C192.80493,369.69111 192.80493,369.029761 192.639593,368.864424 Z M191.647569,325.050062 C191.482232,324.884725 191.482232,325.711411 191.647569,325.546074 C191.978244,325.380737 191.978244,325.050062 191.647569,325.050062 Z M191.316895,309.012353 C191.151558,309.012353 191.151558,309.508364 191.316895,309.508364 C191.647569,309.343027 191.647569,309.17769 191.316895,309.012353 Z M191.647569,323.727365 C191.482232,323.562028 191.482232,324.058039 191.647569,324.058039 C191.978244,324.058039 191.978244,323.727365 191.647569,323.727365 Z M192.639593,367.376389 C192.474255,367.211052 192.474255,368.037738 192.639593,368.037738 C192.80493,367.872401 192.80493,367.376389 192.639593,367.376389 Z M190.159534,304.217574 C189.994197,304.052236 189.994197,304.878922 190.159534,304.713585 C190.324872,304.548248 190.324872,304.217574 190.159534,304.217574 Z M190.159534,307.524318 C189.994197,307.524318 189.994197,308.02033 190.159534,308.02033 C190.324872,307.854992 190.324872,307.524318 190.159534,307.524318 Z M190.159534,305.705609 C189.994197,305.705609 189.994197,306.036283 190.159534,306.036283 C190.324872,306.036283 190.324872,305.705609 190.159534,305.705609 Z M168.004348,333.151586 C168.169685,332.986249 167.673673,332.986249 167.673673,333.151586 C167.673673,333.316923 168.004348,333.316923 168.004348,333.151586 Z M174.617836,300.580155 C174.783174,300.414818 174.287162,300.414818 174.287162,300.580155 C174.452499,300.745492 174.617836,300.745492 174.617836,300.580155 Z M190.324872,390.688936 L190.159534,391.019611 L190.324872,391.019611 L190.324872,390.688936 Z M221.738942,402.92389 L221.077593,402.593215 C221.077593,400.609169 219.424221,398.459785 219.093547,395.979727 C218.266861,389.035564 217.936186,382.091401 216.282814,375.312575 L212.97607,337.946365 L212.97607,337.450353 C212.97607,336.789005 212.810733,336.45833 212.645395,335.30097 L210.661349,318.767248 C210.661349,318.436574 210.496012,317.279213 210.330674,317.113876 L207.685279,293.966666 L207.685279,286.526492 C207.685279,286.195817 208.015953,286.195817 208.181291,286.195817 L209.173314,286.195817 C209.503988,286.195817 209.669326,286.195817 210,286.526492 C218.101523,279.582329 223.888326,276.771596 235.296594,276.771596 C242.240757,276.771596 271.340106,281.070364 271.340106,301.572178 C271.340106,316.28719 260.262513,333.978272 246.704861,340.095749 L244.059466,341.418447 C243.728791,341.583784 243.23278,340.757098 242.902105,340.922435 C242.406094,341.418447 238.107326,343.237156 237.941989,343.402493 L237.941989,345.717214 L238.603338,346.378563 L238.603338,351.669354 C239.09935,352.330703 239.264687,356.62947 239.264687,356.960145 C239.264687,357.786831 238.934012,358.44818 238.934012,359.274866 C238.934012,360.597563 239.595361,368.368412 239.926036,368.53375 L239.926036,374.651226 L240.25671,375.312575 L240.25671,377.131285 C240.25671,382.091401 240.752722,387.051517 240.752722,391.846297 L240.25671,391.846297 C240.091373,390.358262 238.438001,383.414099 238.272663,382.091401 C238.272663,381.760727 238.107326,381.264715 237.941989,381.099378 C237.941989,381.099378 237.776652,381.264715 237.611315,381.264715 C237.611315,383.248761 238.438001,385.067471 238.438001,387.051517 C238.438001,387.878203 237.941989,387.878203 237.941989,388.374215 C237.941989,388.374215 238.768675,395.318378 238.934012,396.145064 C239.09935,397.467762 238.438001,397.798436 238.272663,398.79046 C237.941989,397.798436 237.28064,395.649052 236.784629,395.649052 L236.619291,395.649052 C236.619291,400.278494 235.627268,400.278494 235.131256,401.931867 C235.131256,401.766529 234.965919,401.766529 234.800582,401.601192 C234.469908,401.601192 234.30457,403.089227 232.981873,403.585239 C232.155187,403.915913 228.021756,405.238611 227.856419,405.569285 L227.525745,405.238611 C227.360407,405.238611 227.19507,405.403948 226.864396,405.403948 L226.864396,406.065297 C226.03771,406.065297 226.203047,405.569285 225.541698,405.569285 C225.376361,405.89996 225.211024,406.395971 225.045686,406.395971 C224.384338,406.395971 224.880349,405.238611 224.053663,405.238611 C223.722989,405.238611 223.557651,405.403948 223.557651,405.89996 L223.557651,406.230634 C223.226977,406.230634 222.069617,403.915913 221.738942,402.92389 Z M233.14721,314.468481 C232.816535,316.948539 234.635245,317.609888 234.635245,319.924609 C234.635245,322.23933 234.965919,328.356807 235.957942,329.34883 L236.288617,329.514167 C243.563454,324.388714 255.137059,309.839039 255.137059,298.100097 C255.137059,291.817283 245.712838,285.699806 240.091373,285.699806 C235.627268,285.699806 224.053663,289.00655 224.053663,290.990597 C224.053663,291.321271 224.053663,291.817283 224.384338,291.98262 C224.880349,291.651945 225.376361,290.825259 225.541698,290.659922 L226.203047,291.155934 C226.03771,291.651945 226.03771,292.147957 226.03771,292.643969 C226.03771,294.95869 229.344454,298.926783 228.848442,299.918806 C229.179117,299.753469 229.344454,298.926783 229.509791,298.596108 C229.509791,299.588132 229.675128,301.076167 230.17114,301.902853 L232.155187,312.815109 C232.320524,313.476458 232.651198,313.972469 233.14721,314.468481 Z M236.288617,331.332877 C236.288617,331.498214 236.288617,331.828888 236.619291,331.828888 L242.075419,326.538097 C242.240757,325.546074 246.704861,320.585958 243.398117,323.892702 C242.075419,325.050062 235.957942,330.836865 236.288617,331.332877 Z M227.029733,297.438748 C227.029733,297.604085 227.029733,298.761446 227.360407,298.926783 C227.525745,298.926783 227.856419,298.761446 227.856419,298.596108 C227.856419,298.100097 227.525745,297.438748 227.029733,297.438748 Z M252.326327,331.498214 C252.160989,331.498214 251.995652,331.663551 251.995652,331.994225 C251.995652,332.159563 252.160989,332.3249 252.326327,332.3249 C252.491664,332.3249 252.657001,332.159563 252.657001,331.994225 C252.657001,331.663551 252.491664,331.498214 252.326327,331.498214 Z M211.322698,291.155934 C211.15736,291.155934 210.992023,291.321271 210.992023,291.651945 C210.992023,291.817283 211.15736,291.98262 211.322698,291.98262 C211.488035,291.98262 211.488035,291.817283 211.488035,291.651945 C211.488035,291.321271 211.488035,291.155934 211.322698,291.155934 Z M217.1095,374.320552 C216.778826,374.320552 216.778826,374.485889 216.778826,374.651226 C216.778826,374.816564 216.778826,374.981901 217.1095,374.981901 C217.274837,374.981901 217.274837,374.816564 217.274837,374.651226 C217.274837,374.485889 217.274837,374.320552 217.1095,374.320552 Z M247.696885,318.767248 C247.200873,319.26326 246.704861,319.924609 246.704861,320.255283 C247.035536,319.924609 247.531547,319.097923 247.696885,318.767248 Z M231.163163,398.129111 C230.997826,398.129111 230.997826,398.294448 230.997826,398.625122 C230.997826,398.79046 230.997826,398.955797 231.163163,398.955797 C231.3285,398.955797 231.3285,398.79046 231.3285,398.625122 C231.3285,398.294448 231.3285,398.129111 231.163163,398.129111 Z M237.28064,379.115331 L237.28064,379.611343 L237.611315,379.611343 L237.611315,379.115331 L237.28064,379.115331 Z M228.848442,301.406841 L228.848442,301.737515 L229.179117,301.737515 L229.179117,301.406841 L228.848442,301.406841 Z M237.941989,393.499669 L237.776652,393.334331 C237.611315,393.334331 237.611315,393.499669 237.611315,393.499669 C237.611315,393.665006 237.611315,393.830343 237.776652,393.830343 C237.776652,393.830343 237.941989,393.665006 237.941989,393.499669 Z M254.47571,331.828888 C254.47571,331.828888 254.310373,331.663551 254.145036,331.663551 L254.145036,332.159563 C254.310373,332.159563 254.310373,331.994225 254.47571,331.828888 Z M248.688908,317.444551 L248.523571,317.279213 C248.358233,317.279213 248.358233,317.444551 248.358233,317.444551 C248.358233,317.444551 248.358233,317.609888 248.523571,317.609888 C248.523571,317.609888 248.688908,317.609888 248.688908,317.444551 Z M261.419873,321.908655 L261.419873,322.073993 L261.915885,322.073993 L261.419873,321.908655 Z"/>
  </g>
</svg>
